<svg width="400" height="400" viewBox="-0.9 -0.9 1.8 1.8" id="sr-visualizer"><defs><marker id="arrowhead" markerWidth="4" markerHeight="3.5" refX="3" refY="1.75" orient="auto"><polygon points="0 0, 4 1.75, 0 3.5" fill="#808080"></polygon></marker></defs><polygon points="0.1303506606000727, -0.08268752202133635 -0.11285741817752426, -0.02847063755113407 -0.11047968240977551, 0.23861485183165929 0.1264973555909858, 0.17654380128664204" fill="#FF0000" stroke="#000000" stroke-width="0.01" stroke-linejoin="round"></polygon><polygon points="0.2991062204211032, 0.005451867094843937 0.13035066060007278, -0.08268752202133638 0.12649735559098585, 0.17654380128664204 0.2905208619342022, 0.277187943057578" fill="#3c3cec" stroke="#000000" stroke-width="0.01" stroke-linejoin="round"></polygon><polygon points="-0.11047968240977545, 0.23861485183165912 0.04566082528878381, 0.34676694895297333 0.2905208619342022, 0.2771879430575779 0.1264973555909859, 0.17654380128664193" fill="#FFFFFF" stroke="#000000" stroke-width="0.01" stroke-linejoin="round"></polygon><polygon points="0.13440918515526004, -0.3557250024798199 -0.11536656820958469, -0.3103175834303318 -0.11285741817752426, -0.02847063755113407 0.1303506606000727, -0.08268752202133635" fill="#FF0000" stroke="#000000" stroke-width="0.01" stroke-linejoin="round"></polygon><polygon points="-0.11285741817752426, -0.02847063755113407 -0.3746163745091967, 0.029881680208230895 -0.3650414126656289, 0.3052918352172283 -0.11047968240977551, 0.23861485183165929" fill="#FF0000" stroke="#000000" stroke-width="0.01" stroke-linejoin="round"></polygon><polygon points="0.3081765110394528, -0.2816328462846203 0.1344091851552601, -0.35572500247981986 0.13035066060007278, -0.08268752202133638 0.2991062204211032, 0.005451867094843937" fill="#3c3cec" stroke="#000000" stroke-width="0.01" stroke-linejoin="round"></polygon><polygon points="-0.3650414126656288, 0.3052918352172282 -0.21849253319064127, 0.42182831192068293 0.04566082528878381, 0.34676694895297333 -0.11047968240977545, 0.23861485183165912" fill="#FFFFFF" stroke="#000000" stroke-width="0.01" stroke-linejoin="round"></polygon><polygon points="0.13868977215877717, -0.6437017473364711 -0.11801833676307459, -0.6081845337640649 -0.11536656820958469, -0.3103175834303318 0.13440918515526004, -0.3557250024798199" fill="#0e8b0e" stroke="#000000" stroke-width="0.01" stroke-linejoin="round"></polygon><polygon points="0.02511164570584336, -0.8863349332714133 -0.23013550784403566, -0.8608246598128767 -0.11801833676307459, -0.6081845337640649 0.13868977215877717, -0.6437017473364711" fill="#0e8b0e" stroke="#000000" stroke-width="0.01" stroke-linejoin="round"></polygon><polygon points="-0.11536656820958469, -0.3103175834303318 -0.3847412936322263, -0.2613472135132001 -0.3746163745091967, 0.029881680208230895 -0.11285741817752426, -0.02847063755113407" fill="#FF0000" stroke="#000000" stroke-width="0.01" stroke-linejoin="round"></polygon><polygon points="0.3177740139410689, -0.5854044105710967 0.13868977215877726, -0.6437017473364711 0.1344091851552601, -0.35572500247981986 0.3081765110394528, -0.2816328462846203" fill="#FF0000" stroke="#000000" stroke-width="0.01" stroke-linejoin="round"></polygon><polygon points="0.48898585164856245, 0.10462415344643242 0.2991062204211032, 0.005451867094843937 0.2905208619342022, 0.277187943057578 0.4744938727539127, 0.39007301786033755" fill="#3c3cec" stroke="#000000" stroke-width="0.01" stroke-linejoin="round"></polygon><polygon points="0.04566082528878381, 0.34676694895297333 0.22155741136007095, 0.46860326766673005 0.47449387275391275, 0.39007301786033743 0.2905208619342022, 0.2771879430575779" fill="#FFFFFF" stroke="#000000" stroke-width="0.01" stroke-linejoin="round"></polygon><polygon points="-0.3746163745091967, 0.029881680208230895 -0.6571328375640859, 0.09286134155568132 -0.6392205399069038, 0.37710717483391815 -0.3650414126656289, 0.3052918352172283" fill="#FF0000" stroke="#000000" stroke-width="0.01" stroke-linejoin="round"></polygon><polygon points="0.503955528379501, -0.8319104926786998 0.3152845953144344, -0.8754374221184458 0.13868977215877726, -0.6437017473364711 0.3177740139410689, -0.5854044105710967" fill="#FF0000" stroke="#000000" stroke-width="0.01" stroke-linejoin="round"></polygon><polygon points="-0.6392205399069036, 0.3771071748339178 -0.5043130087840259, 0.503046565535238 -0.21849253319064127, 0.42182831192068293 -0.3650414126656288, 0.3052918352172282" fill="#FFFFFF" stroke="#000000" stroke-width="0.01" stroke-linejoin="round"></polygon><polygon points="-0.11801833676307459, -0.6081845337640649 -0.39546495286624633, -0.5697980146920179 -0.3847412936322263, -0.2613472135132001 -0.11536656820958469, -0.3103175834303318" fill="#3c3cec" stroke="#000000" stroke-width="0.01" stroke-linejoin="round"></polygon><polygon points="-0.23013550784403566, -0.8608246598128767 -0.5055212518193389, -0.8333016667542307 -0.39546495286624633, -0.5697980146920179 -0.11801833676307459, -0.6081845337640649" fill="#3c3cec" stroke="#000000" stroke-width="0.01" stroke-linejoin="round"></polygon><polygon points="0.504349161956643, -0.19798734722992695 0.3081765110394528, -0.2816328462846203 0.2991062204211032, 0.005451867094843937 0.48898585164856245, 0.10462415344643242" fill="#3c3cec" stroke="#000000" stroke-width="0.01" stroke-linejoin="round"></polygon><polygon points="0.13868977215877729, -0.6437017473364711 0.31777401394106897, -0.5854044105710967 0.05180929008193742, -0.5451717818233652 -0.11801833676307458, -0.6081845337640649" fill="#FFFF00" stroke="#000000" stroke-width="0.01" stroke-linejoin="round"></polygon><polygon points="-0.3847412936322263, -0.2613472135132001 -0.6761159766975308, -0.20837741097583257 -0.6571328375640859, 0.09286134155568132 -0.3746163745091967, 0.029881680208230895" fill="#FF0000" stroke="#000000" stroke-width="0.01" stroke-linejoin="round"></polygon><polygon points="-0.21849253319064127, 0.42182831192068293 -0.05262251409504726, 0.5537290653442837 0.22155741136007095, 0.46860326766673005 0.04566082528878381, 0.34676694895297333" fill="#FFFFFF" stroke="#000000" stroke-width="0.01" stroke-linejoin="round"></polygon><polygon points="-0.6571328375640857, 0.09286134155568124 -0.5192387962177233, 0.20383242324262116 -0.5043130087840257, 0.5030465655352381 -0.6392205399069036, 0.377107174833918" fill="#0e8b0e" stroke="#000000" stroke-width="0.01" stroke-linejoin="round"></polygon><polygon points="0.5206648226219431, -0.5193573162955036 0.3177740139410689, -0.5854044105710967 0.3081765110394528, -0.2816328462846203 0.504349161956643, -0.19798734722992695" fill="#FF0000" stroke="#000000" stroke-width="0.01" stroke-linejoin="round"></polygon><polygon points="0.7042206983378629, 0.21703922246003146 0.48898585164856245, 0.10462415344643242 0.4744938727539127, 0.39007301786033755 0.682291616361797, 0.5175768496805835" fill="#3c3cec" stroke="#000000" stroke-width="0.01" stroke-linejoin="round"></polygon><polygon points="-0.39546495286624633, -0.5697980146920179 -0.6962689424245833, -0.5281798531721271 -0.6761159766975308, -0.20837741097583257 -0.3847412936322263, -0.2613472135132001" fill="#FFA500" stroke="#000000" stroke-width="0.01" stroke-linejoin="round"></polygon><polygon points="-0.5055212518193389, -0.8333016667542307 -0.8035268226604628, -0.8035179708399147 -0.6962689424245833, -0.5281798531721271 -0.39546495286624633, -0.5697980146920179" fill="#FFA500" stroke="#000000" stroke-width="0.01" stroke-linejoin="round"></polygon><polygon points="0.22155741136007095, 0.46860326766673005 0.4212128384742323, 0.6068963567716753 0.682291616361797, 0.5175768496805834 0.47449387275391275, 0.39007301786033743" fill="#FFFFFF" stroke="#000000" stroke-width="0.01" stroke-linejoin="round"></polygon><polygon points="0.7175077839421812, -0.7826433702419344 0.503955528379501, -0.8319104926786998 0.3177740139410689, -0.5854044105710967 0.5206648226219431, -0.5193573162955036" fill="#FF0000" stroke="#000000" stroke-width="0.01" stroke-linejoin="round"></polygon><polygon points="-0.11801833676307458, -0.6081845337640649 0.05180929008193742, -0.5451717818233652 -0.23709638972864655, -0.5014688621644163 -0.39546495286624633, -0.5697980146920179" fill="#FFFF00" stroke="#000000" stroke-width="0.01" stroke-linejoin="round"></polygon><polygon points="-0.5043130087840259, 0.503046565535238 -0.3508394900754718, 0.6463177474630883 -0.05262251409504726, 0.5537290653442837 -0.21849253319064127, 0.42182831192068293" fill="#FFFFFF" stroke="#000000" stroke-width="0.01" stroke-linejoin="round"></polygon><polygon points="-0.6761159766975305, -0.20837741097583262 -0.535118000019374, -0.11449465778452154 -0.5192387962177233, 0.20383242324262116 -0.6571328375640857, 0.09286134155568124" fill="#0e8b0e" stroke="#000000" stroke-width="0.01" stroke-linejoin="round"></polygon><polygon points="0.7275591278433413, -0.1028134842919414 0.504349161956643, -0.19798734722992695 0.48898585164856245, 0.10462415344643242 0.7042206983378629, 0.21703922246003146" fill="#3c3cec" stroke="#000000" stroke-width="0.01" stroke-linejoin="round"></polygon><polygon points="0.31777401394106897, -0.5854044105710967 0.5206648226219432, -0.5193573162955036 0.2452111391694333, -0.47341206305543543 0.05180929008193742, -0.5451717818233652" fill="#FFFF00" stroke="#000000" stroke-width="0.01" stroke-linejoin="round"></polygon><polygon points="-0.05262251409504726, 0.5537290653442837 0.13665927628816796, 0.7042469883362955 0.4212128384742323, 0.6068963567716753 0.22155741136007095, 0.46860326766673005" fill="#FFFFFF" stroke="#000000" stroke-width="0.01" stroke-linejoin="round"></polygon><polygon points="-0.39546495286624633, -0.5697980146920179 -0.23709638972864655, -0.5014688621644163 -0.552044986351171, -0.45382641628409603 -0.6962689424245831, -0.528179853172127" fill="#FFFF00" stroke="#000000" stroke-width="0.01" stroke-linejoin="round"></polygon><polygon points="0.4356266145219046, 0.2959126138051551 0.7042206983378628, 0.21703922246003138 0.682291616361797, 0.5175768496805835 0.4212128384742322, 0.6068963567716753" fill="#FFA500" stroke="#000000" stroke-width="0.01" stroke-linejoin="round"></polygon><polygon points="-0.6962689424245831, -0.5281798531721271 -0.552044986351171, -0.45382641628409603 -0.535118000019374, -0.11449465778452154 -0.6761159766975305, -0.20837741097583262" fill="#3c3cec" stroke="#000000" stroke-width="0.01" stroke-linejoin="round"></polygon><polygon points="-0.5192387962177233, 0.20383242324262116 -0.36173866981580566, 0.330581623004991 -0.3508394900754718, 0.6463177474630886 -0.5043130087840257, 0.5030465655352381" fill="#0e8b0e" stroke="#000000" stroke-width="0.01" stroke-linejoin="round"></polygon><polygon points="0.7524472805560047, -0.4439051164145402 0.5206648226219431, -0.5193573162955036 0.504349161956643, -0.19798734722992695 0.7275591278433413, -0.1028134842919414" fill="#FFA500" stroke="#000000" stroke-width="0.01" stroke-linejoin="round"></polygon><polygon points="0.9612107195553792, -0.726420398794412 0.7175077839421812, -0.7826433702419344 0.5206648226219431, -0.5193573162955036 0.7524472805560047, -0.4439051164145402" fill="#FFA500" stroke="#000000" stroke-width="0.01" stroke-linejoin="round"></polygon><polygon points="0.05180929008193742, -0.5451717818233652 0.2452111391694333, -0.47341206305543543 -0.055727315954919206, -0.42321598886589895 -0.23709638972864655, -0.5014688621644163" fill="#FFFF00" stroke="#000000" stroke-width="0.01" stroke-linejoin="round"></polygon><polygon points="0.451009274683094, -0.03597524249889801 0.7275591278433413, -0.10281348429194144 0.7042206983378628, 0.21703922246003138 0.4356266145219046, 0.2959126138051551" fill="#FFA500" stroke="#000000" stroke-width="0.01" stroke-linejoin="round"></polygon><polygon points="-0.3508394900754718, 0.6463177474630883 -0.17468419674205146, 0.8107629057620467 0.13665927628816796, 0.7042469883362955 -0.05262251409504726, 0.5537290653442837" fill="#FFFFFF" stroke="#000000" stroke-width="0.01" stroke-linejoin="round"></polygon><polygon points="-0.535118000019374, -0.11449465778452154 -0.3733852490413805, -0.006805765356811518 -0.36173866981580566, 0.330581623004991 -0.5192387962177233, 0.20383242324262116" fill="#0e8b0e" stroke="#000000" stroke-width="0.01" stroke-linejoin="round"></polygon><polygon points="0.14206020766868482, 0.3821191964839508 0.4356266145219046, 0.2959126138051551 0.4212128384742322, 0.6068963567716753 0.13665927628816793, 0.7042469883362956" fill="#FFA500" stroke="#000000" stroke-width="0.01" stroke-linejoin="round"></polygon><polygon points="0.5206648226219432, -0.5193573162955036 0.7524472805560047, -0.4439051164145402 0.46746190811533367, -0.3909482564746683 0.2452111391694333, -0.47341206305543543" fill="#FFFF00" stroke="#000000" stroke-width="0.01" stroke-linejoin="round"></polygon><polygon points="0.4674619081153338, -0.39094825647466847 0.7524472805560046, -0.4439051164145403 0.7275591278433413, -0.10281348429194144 0.451009274683094, -0.03597524249889801" fill="#0e8b0e" stroke="#000000" stroke-width="0.01" stroke-linejoin="round"></polygon><polygon points="-0.23709638972864655, -0.5014688621644163 -0.055727315954919206, -0.42321598886589895 -0.38585883542671423, -0.3681505561784643 -0.552044986351171, -0.45382641628409603" fill="#FFFF00" stroke="#000000" stroke-width="0.01" stroke-linejoin="round"></polygon><polygon points="-0.552044986351171, -0.45382641628409603 -0.38585883542671423, -0.36815055617846437 -0.3733852490413805, -0.006805765356811518 -0.535118000019374, -0.11449465778452154" fill="#0e8b0e" stroke="#000000" stroke-width="0.01" stroke-linejoin="round"></polygon><polygon points="-0.36173866981580566, 0.330581623004991 -0.18013098782467596, 0.47673152706496874 -0.17468419674205146, 0.8107629057620468 -0.3508394900754718, 0.6463177474630886" fill="#0e8b0e" stroke="#000000" stroke-width="0.01" stroke-linejoin="round"></polygon><polygon points="0.14784165746952166, 0.037296141562911805 0.451009274683094, -0.03597524249889801 0.4356266145219046, 0.2959126138051551 0.14206020766868482, 0.3821191964839508" fill="#FFA500" stroke="#000000" stroke-width="0.01" stroke-linejoin="round"></polygon><polygon points="-0.18013098782467601, 0.47673152706496863 0.14206020766868482, 0.3821191964839508 0.13665927628816793, 0.7042469883362956 -0.1746841967420515, 0.8107629057620467" fill="#FFA500" stroke="#000000" stroke-width="0.01" stroke-linejoin="round"></polygon><polygon points="0.2452111391694333, -0.47341206305543543 0.46746190811533367, -0.3909482564746683 0.15404530772232486, -0.3327082181607765 -0.055727315954919206, -0.42321598886589895" fill="#FFFF00" stroke="#000000" stroke-width="0.01" stroke-linejoin="round"></polygon><polygon points="-0.3733852490413805, -0.006805765356811518 -0.18598092986078307, 0.11797640428224683 -0.18013098782467596, 0.47673152706496874 -0.36173866981580566, 0.330581623004991" fill="#0e8b0e" stroke="#000000" stroke-width="0.01" stroke-linejoin="round"></polygon><polygon points="0.1540453077223249, -0.33270821816077667 0.4674619081153338, -0.39094825647466847 0.451009274683094, -0.03597524249889801 0.14784165746952166, 0.037296141562911805" fill="#FFA500" stroke="#000000" stroke-width="0.01" stroke-linejoin="round"></polygon><polygon points="-0.18598092986078307, 0.11797640428224677 0.14784165746952166, 0.037296141562911805 0.14206020766868482, 0.3821191964839508 -0.18013098782467601, 0.47673152706496863" fill="#FFA500" stroke="#000000" stroke-width="0.01" stroke-linejoin="round"></polygon><polygon points="-0.055727315954919206, -0.42321598886589895 0.15404530772232486, -0.3327082181607765 -0.19228050254830273, -0.26835288907495686 -0.38585883542671423, -0.3681505561784643" fill="#FFFF00" stroke="#000000" stroke-width="0.01" stroke-linejoin="round"></polygon><polygon points="-0.38585883542671423, -0.36815055617846437 -0.19228050254830273, -0.26835288907495697 -0.18598092986078307, 0.11797640428224683 -0.3733852490413805, -0.006805765356811518" fill="#3c3cec" stroke="#000000" stroke-width="0.01" stroke-linejoin="round"></polygon><polygon points="-0.19228050254830278, -0.26835288907495697 0.1540453077223249, -0.33270821816077667 0.14784165746952166, 0.037296141562911805 -0.18598092986078307, 0.11797640428224677" fill="#FF0000" stroke="#000000" stroke-width="0.01" stroke-linejoin="round"></polygon></svg>
